<?xml version="1.0" encoding="UTF-8"?>
<svg id="Layer_1" data-name="Layer 1" xmlns="http://www.w3.org/2000/svg" viewBox="0 0 57.6 57.6">
  <defs>
    <style>
      .cls-1 {
        fill: #123015;
      }
    </style>
  </defs>
  <g>
    <g id="_Radial_Repeat_" data-name="&amp;lt;Radial Repeat&amp;gt;">
      <path class="cls-1" d="M22.6102,56.8462c-.4794-4.7906,2.5016-7.539,5.3845-10.1969,2.8486-2.6263,5.7941-5.342,5.3243-10.0383l.1891-.0189c.4794,4.7906-2.5016,7.539-5.3845,10.1969-2.8486,2.6263-5.7941,5.342-5.3243,10.0382l-.1891.0189Z"/>
    </g>
    <g id="_Radial_Repeat_-2" data-name="&amp;lt;Radial Repeat&amp;gt;">
      <path class="cls-1" d="M16.8875,54.8798l-.1888-.0221c.5617-4.7816,4.0638-6.825,7.4507-8.801,3.3466-1.9526,6.8071-3.9715,7.3577-8.659l.1888.0221c-.5617,4.7816-4.0638,6.825-7.4507,8.801-3.3466,1.9526-6.8071,3.9715-7.3578,8.659Z"/>
    </g>
    <g id="_Radial_Repeat_-3" data-name="&amp;lt;Radial Repeat&amp;gt;">
      <path class="cls-1" d="M11.5327,51.7073l-.1795-.0622c1.5764-4.5491,5.4359-5.7918,9.1684-6.9935,3.6881-1.1875,7.5017-2.4154,9.0471-6.8749l.1795.0622c-1.5764,4.5491-5.4359,5.7918-9.1684,6.9935-3.6881,1.1875-7.5017,2.4154-9.0471,6.8749Z"/>
    </g>
    <g id="_Radial_Repeat_-4" data-name="&amp;lt;Radial Repeat&amp;gt;">
      <path class="cls-1" d="M6.985,47.4577l-.162-.0994c2.5175-4.1039,6.554-4.4878,10.4575-4.8591,3.8571-.3669,7.8456-.7462,10.3135-4.7692l.162.0994c-2.5175,4.1039-6.5539,4.4878-10.4575,4.8591-3.8571.3669-7.8456.7462-10.3135,4.7692Z"/>
    </g>
    <g id="_Radial_Repeat_-5" data-name="&amp;lt;Radial Repeat&amp;gt;">
      <path class="cls-1" d="M3.4572,42.33l-.1368-.1319c3.3409-3.4667,7.3655-2.9739,11.2575-2.4974,3.8458.4709,7.8226.9578,11.0977-2.4406l.1368.1319c-3.3408,3.4666-7.3656,2.9739-11.2576,2.4974-3.8458-.4711-7.8226-.9578-11.0976,2.4406Z"/>
    </g>
    <g id="_Radial_Repeat_-6" data-name="&amp;lt;Radial Repeat&amp;gt;">
      <path class="cls-1" d="M19.0215,38.0844c-2.2311.0001-4.4085-.7667-6.5446-1.5186-3.6546-1.2866-7.4338-2.6171-11.3628-.002l-.1053-.1583c4.008-2.6674,7.8327-1.321,11.5312-.019,3.6548,1.2866,7.4338,2.6169,11.3628.002l.1053.1583c-1.6933,1.127-3.3545,1.5375-4.9866,1.5376Z"/>
    </g>
    <g id="_Radial_Repeat_-7" data-name="&amp;lt;Radial Repeat&amp;gt;">
      <path class="cls-1" d="M19.1379,35.9757c-2.9733.0002-5.5054-1.5705-7.9757-3.1027-3.2927-2.0422-6.6973-4.1541-11.0967-2.4447l-.0688-.1772c4.4876-1.7432,7.9334.3935,11.2658,2.4603,3.2926,2.0421,6.6971,4.1539,11.0967,2.4447l.0688.1772c-1.1608.4509-2.2525.6423-3.29.6424Z"/>
    </g>
    <g id="_Radial_Repeat_-8" data-name="&amp;lt;Radial Repeat&amp;gt;">
      <path class="cls-1" d="M19.6448,33.9279c-3.8934.0002-6.4709-2.5086-8.9729-4.9436-2.7767-2.7022-5.6474-5.4963-10.3118-4.773l-.0291-.1878c4.757-.7376,7.6633,2.0898,10.4734,4.8246,2.7767,2.7022,5.6479,5.4964,10.3118,4.773l.0291.1878c-.5215.0809-1.0212.119-1.5005.119Z"/>
    </g>
    <g id="_Radial_Repeat_-9" data-name="&amp;lt;Radial Repeat&amp;gt;">
      <path class="cls-1" d="M20.2206,32.0442c-4.805-.302-7.0349-3.6884-9.1914-6.9633-2.1308-3.2359-4.3343-6.5821-9.0446-6.8781l.0119-.1897c4.8051.302,7.035,3.6884,9.1915,6.9633,2.1308,3.2359,4.3343,6.5821,9.0445,6.8781l-.0119.1897Z"/>
    </g>
    <g id="_Radial_Repeat_-10" data-name="&amp;lt;Radial Repeat&amp;gt;">
      <path class="cls-1" d="M19.6967,30.122c-4.6278-1.3278-6.0775-5.1144-7.4796-8.7764-1.3854-3.6183-2.818-7.3599-7.3546-8.6617l.0525-.1826c4.6278,1.3278,6.0775,5.1144,7.4796,8.7764,1.3854,3.6183,2.818,7.3599,7.3546,8.6617l-.0525.1826Z"/>
    </g>
    <g id="_Radial_Repeat_-11" data-name="&amp;lt;Radial Repeat&amp;gt;">
      <path class="cls-1" d="M19.5984,28.1322c-4.2342-2.2917-4.8361-6.3014-5.4181-10.1791-.5752-3.8316-1.17-7.7936-5.3207-10.0401l.0904-.1672c4.2342,2.2917,4.8361,6.3014,5.4182,10.1791.5751,3.8316,1.1699,7.7937,5.3206,10.0402l-.0904.1672Z"/>
    </g>
    <g id="_Radial_Repeat_-12" data-name="&amp;lt;Radial Repeat&amp;gt;">
      <path class="cls-1" d="M19.9301,26.1676c-3.6425-3.1483-3.3684-7.1937-3.1032-11.1058.2619-3.8657.5328-7.863-3.0379-10.9492l.1242-.1438c3.6425,3.1483,3.3684,7.1936,3.1032,11.1058-.2619,3.8657-.5328,7.863,3.0379,10.9492l-.1242.1438Z"/>
    </g>
    <g id="_Radial_Repeat_-13" data-name="&amp;lt;Radial Repeat&amp;gt;">
      <path class="cls-1" d="M20.6763,24.3204c-2.8805-3.8577-1.7432-7.7496-.6432-11.5132,1.0868-3.719,2.2107-7.5646-.6132-11.3463l.1523-.1137c2.8805,3.8577,1.7432,7.7496.6432,11.5133-1.0868,3.719-2.2107,7.5646.6132,11.3462l-.1523.1137Z"/>
    </g>
    <g id="_Radial_Repeat_-14" data-name="&amp;lt;Radial Repeat&amp;gt;">
      <path class="cls-1" d="M21.8022,22.6768c-1.9839-4.3867-.0364-7.9431,1.8468-11.3824,1.8609-3.3983,3.7851-6.9124,1.8403-11.2128l.1732-.0783c1.9839,4.3867.0364,7.9431-1.8468,11.3824-1.8609,3.3983-3.7851,6.9124-1.8403,11.2128l-.1732.0783Z"/>
    </g>
    <g id="_Radial_Repeat_-15" data-name="&amp;lt;Radial Repeat&amp;gt;">
      <path class="cls-1" d="M23.2552,21.3135c-.9945-4.7106,1.6719-7.7652,4.2505-10.7192,2.5479-2.9189,5.1826-5.9372,4.2077-10.5551l.186-.0392c.9945,4.7107-1.6719,7.7653-4.2505,10.7193-2.5479,2.9189-5.1826,5.9372-4.2077,10.555l-.186.0392Z"/>
    </g>
    <g id="_Radial_Repeat_-16" data-name="&amp;lt;Radial Repeat&amp;gt;">
      <path class="cls-1" d="M25.1572,20.2963l-.1901-.0016c.0415-4.8143,3.3021-7.2244,6.4555-9.555,3.1159-2.3029,6.3378-4.6842,6.3783-9.4037l.1901.0016c-.0414,4.8143-3.3021,7.2243-6.4554,9.555-3.1159,2.3029-6.3378,4.6842-6.3784,9.4037Z"/>
    </g>
    <g id="_Radial_Repeat_-17" data-name="&amp;lt;Radial Repeat&amp;gt;">
      <path class="cls-1" d="M27.0435,19.7099l-.1852-.0424c1.0754-4.6929,4.7779-6.3456,8.3585-7.9438,3.5381-1.5793,7.1966-3.2123,8.2508-7.8127l.1852.0424c-1.0754,4.6929-4.7779,6.3456-8.3586,7.9438-3.538,1.5793-7.1965,3.2123-8.2507,7.8127Z"/>
    </g>
    <g id="_Radial_Repeat_-18" data-name="&amp;lt;Radial Repeat&amp;gt;">
      <path class="cls-1" d="M29.0116,19.5428l-.1717-.0813c2.059-4.352,6.0303-5.1701,9.8708-5.9612,3.7948-.7818,7.7189-1.5902,9.7374-5.8564l.1717.0813c-2.059,4.352-6.0303,5.1701-9.8708,5.9612-3.7948.7818-7.7189,1.5902-9.7374,5.8564Z"/>
    </g>
    <g id="_Radial_Repeat_-19" data-name="&amp;lt;Radial Repeat&amp;gt;">
      <path class="cls-1" d="M30.9697,19.8027l-.1503-.1163c2.9465-3.8076,7.0006-3.7535,10.9216-3.6999,3.8739.0517,7.8801.1063,10.7686-3.6263l.1503.1163c-2.9465,3.8075-7.0009,3.7528-10.9215,3.6999-3.8737-.0515-7.8802-.1063-10.7687,3.6263Z"/>
    </g>
    <g id="_Radial_Repeat_-20" data-name="&amp;lt;Radial Repeat&amp;gt;">
      <path class="cls-1" d="M32.8261,20.4775l-.1218-.1459c3.696-3.0851,7.6438-2.1602,11.4615-1.2657,3.7724.8838,7.6732,1.7978,11.2965-1.2265l.1218.1459c-3.6961,3.0852-7.6439,2.1603-11.4616,1.2657-3.7724-.8838-7.6731-1.7978-11.2964,1.2265Z"/>
    </g>
    <g id="_Radial_Repeat_-21" data-name="&amp;lt;Radial Repeat&amp;gt;">
      <path class="cls-1" d="M53.1273,25.0382c-2.5952,0-4.9923-1.1487-7.3372-2.2722-3.4942-1.6742-7.1072-3.4055-11.296-1.2306l-.0876-.1686c4.273-2.2187,7.9295-.4665,11.4657,1.2279,3.4942,1.6742,7.1073,3.4053,11.296,1.2306l.0876.1686c-1.4396.7475-2.8099,1.0443-4.1286,1.0443Z"/>
    </g>
    <g id="_Radial_Repeat_-22" data-name="&amp;lt;Radial Repeat&amp;gt;">
      <path class="cls-1" d="M55.1704,30.5538c-3.3952,0-5.9864-2.0255-8.5075-3.9963-3.0526-2.3862-6.2089-4.8536-10.7674-3.6302l-.0492-.1836c4.6498-1.248,7.8444,1.2491,10.9337,3.6639,3.0526,2.3862,6.2091,4.8536,10.7674,3.6302l.0492.1835c-.8551.2295-1.6611.3324-2.4262.3324Z"/>
    </g>
    <g id="_Radial_Repeat_-23" data-name="&amp;lt;Radial Repeat&amp;gt;">
      <path class="cls-1" d="M56.1169,36.3875c-4.508,0-7.0018-3.0178-9.4165-5.9396-2.4681-2.9866-5.0186-6.0738-9.7352-5.86l-.0087-.1898c4.8112-.2199,7.3925,2.9061,9.8904,5.9287,2.4682,2.9866,5.0188,6.0745,9.7353,5.8599l.0087.1898c-.1603.0074-.3186.011-.474.011Z"/>
    </g>
    <g id="_Radial_Repeat_-24" data-name="&amp;lt;Radial Repeat&amp;gt;">
      <path class="cls-1" d="M54.2854,42.1717c-4.7442-.8197-6.5949-4.4274-8.3847-7.9163-1.7685-3.4473-3.5972-7.0121-8.248-7.8156l.0324-.1873c4.7443.8197,6.595,4.4274,8.3847,7.9162,1.7685,3.4474,3.5972,7.0121,8.248,7.8157l-.0324.1873Z"/>
    </g>
    <g id="_Radial_Repeat_-25" data-name="&amp;lt;Radial Repeat&amp;gt;">
      <path class="cls-1" d="M50.788,47.3356c-4.4571-1.8204-5.4889-5.7416-6.4869-9.5336-.9861-3.747-2.0057-7.6215-6.375-9.406l.0719-.1759c4.4571,1.8204,5.489,5.7415,6.4869,9.5336.9861,3.747,2.0057,7.6214,6.375,9.406l-.0719.1759Z"/>
    </g>
    <g id="_Radial_Repeat_-26" data-name="&amp;lt;Radial Repeat&amp;gt;">
      <path class="cls-1" d="M46.2625,51.6269c-3.9615-2.736-4.1264-6.7873-4.2858-10.7052-.1575-3.8713-.3204-7.8745-4.2039-10.5566l.108-.1564c3.9615,2.7361,4.1264,6.7873,4.2858,10.7052.1575,3.8714.3204,7.8745,4.2039,10.5566l-.108.1564Z"/>
    </g>
    <g id="_Radial_Repeat_-27" data-name="&amp;lt;Radial Repeat&amp;gt;">
      <path class="cls-1" d="M40.92,54.8452c-3.2807-3.5237-2.5709-7.5157-1.8843-11.3762.6784-3.8147,1.3799-7.7593-1.8363-11.2135l.1391-.1295c3.2807,3.5237,2.5709,7.5157,1.8843,11.3762-.6784,3.8147-1.3799,7.7593,1.8363,11.2135l-.1391.1295Z"/>
    </g>
    <g id="_Radial_Repeat_-28" data-name="&amp;lt;Radial Repeat&amp;gt;">
      <path class="cls-1" d="M35.0108,56.8396c-2.4466-4.1466-.8951-7.8927.6053-11.5154,1.4826-3.5797,3.0156-7.2812.6172-11.346l.1637-.0966c2.4465,4.1466.895,7.8926-.6054,11.5153-1.4825,3.5797-3.0156,7.2812-.6172,11.3461l-.1637.0966Z"/>
    </g>
    <g id="_Radial_Repeat_-29" data-name="&amp;lt;Radial Repeat&amp;gt;">
      <path class="cls-1" d="M28.8108,57.5172c-1.498-4.5755.8225-7.9004,3.0666-11.116,2.2174-3.1773,4.5103-6.4627,3.0419-10.9481l.1807-.0591c1.498,4.5755-.8225,7.9005-3.0667,11.116-2.2174,3.1773-4.5103,6.4627-3.0418,10.9481l-.1807.0591Z"/>
    </g>
  </g>
  <circle class="cls-1" cx="11.729" cy="33.1626" r=".8236"/>
  <circle class="cls-1" cx="39.0091" cy="44.5887" r=".8236"/>
  <circle class="cls-1" cx="41.231" cy="20.83" r=".8248"/>
</svg>